# Blender v2.93.6 OBJ File: ''
# www.blender.org
mtllib Paper_weight.mtl
o Cube.001
v -5.915422 3.837834 6.464324
v -6.669455 4.111124 6.491165
v -6.617720 4.111311 7.334824
v -5.825462 3.825991 7.261655
v -7.469012 4.113836 6.559534
v -7.462507 4.116821 7.361982
v -6.618513 3.831688 8.132472
v -5.867077 3.572643 8.021955
v -7.420668 3.848646 8.117166
v -5.582052 3.279251 5.892436
v -6.054048 3.575506 5.772483
v -5.354100 3.339038 6.411471
v -6.769032 3.809221 5.741515
v -7.511780 3.834479 5.861818
v -8.039042 3.715746 6.043012
v -8.169480 3.839204 6.584010
v -8.220127 3.819643 7.334902
v -8.124115 3.590376 8.045537
v -7.962585 3.296351 8.506395
v -7.424168 3.353906 8.684525
v -6.675817 3.297918 8.744717
v -5.966435 3.094933 8.595190
v -5.308735 3.090211 7.872998
v -5.505595 2.859853 8.355820
v -5.224722 3.287496 7.151329
v -6.311435 0.864386 8.622083
v -6.121700 1.601686 8.875782
v -6.935812 1.722908 9.068026
v -7.091922 0.939031 8.793077
v -6.023502 2.398131 8.874270
v -6.788522 2.555168 9.058811
v -7.758745 1.892513 8.976107
v -7.865023 1.140388 8.717293
v -7.577090 2.674133 8.969481
v -5.960958 0.434246 7.956988
v -5.683588 0.865071 8.206770
v -6.488220 0.315513 8.138182
v -5.455690 1.553271 8.409814
v -5.413420 2.304183 8.443398
v -8.228800 2.804348 8.615937
v -8.451096 2.085418 8.593385
v -8.498967 1.365236 8.379306
v -7.945952 0.574486 8.227517
v -8.417948 0.870741 8.107564
v -7.230968 0.340771 8.258485
v -8.910915 1.493728 7.762489
v -8.895475 2.276543 7.938377
v -9.062657 2.441436 7.126407
v -9.072645 1.608194 6.984856
v -8.622982 3.027476 8.014679
v -8.769245 3.224329 7.250590
v -8.946418 2.555979 6.297071
v -8.959260 1.758919 6.204857
v -8.671328 3.292666 6.457045
v -8.645900 0.810953 7.588529
v -8.316413 3.284921 5.793230
v -8.544310 2.596721 5.590186
v -8.586580 1.845809 5.556602
v -8.691265 1.059781 6.127002
v -8.494405 1.290139 5.644180
v -8.775278 0.862496 6.848671
v -8.132922 0.577349 5.978045
v -7.381487 0.318304 5.867528
v -7.382280 0.038681 6.665176
v -8.174538 0.323998 6.738345
v -6.579332 0.301346 5.882834
v -6.537492 0.033171 6.638018
v -7.330545 0.038866 7.508835
v -8.084578 0.312158 7.535676
v -6.530987 0.036156 7.440466
v -8.033565 1.055059 5.404810
v -7.324183 0.852074 5.255283
v -6.575832 0.796084 5.315475
v -6.037415 0.853641 5.493605
v -5.875885 0.559616 5.954463
v -5.779872 0.330348 6.665098
v -5.830520 0.310788 7.415990
v -5.377017 1.122516 5.985322
v -5.104525 1.873449 6.061623
v -4.937343 1.708556 6.873590
v -5.230755 0.925663 6.749410
v -5.089085 2.656264 6.237511
v -4.927355 2.541799 7.015144
v -5.053582 1.594013 7.702929
v -5.328672 0.857326 7.542955
v -5.040740 2.391073 7.795143
v -5.771200 1.345644 5.384063
v -5.548905 2.064574 5.406615
v -5.501032 2.784756 5.620694
v -7.976498 1.751861 5.125730
v -7.878300 2.548306 5.124218
v -7.064188 2.427081 4.931974
v -7.211477 1.594824 4.941189
v -7.688565 3.285606 5.377917
v -6.908077 3.210961 5.206923
v -6.241255 2.257479 5.023894
v -6.422910 1.475859 5.030519
v -6.134977 3.009604 5.282707
vt 0.687500 0.562500
vt 0.750000 0.562500
vt 0.750000 0.625000
vt 0.687500 0.625000
vt 0.812500 0.562500
vt 0.812500 0.625000
vt 0.750000 0.687500
vt 0.687500 0.687500
vt 0.812500 0.687500
vt 0.625000 0.500000
vt 0.687500 0.500000
vt 0.625000 0.562500
vt 0.750000 0.500000
vt 0.812500 0.500000
vt 0.875000 0.500000
vt 0.875000 0.562500
vt 0.875000 0.625000
vt 0.875000 0.687500
vt 0.875000 0.750000
vt 0.812500 0.750000
vt 0.750000 0.750000
vt 0.687500 0.750000
vt 0.625000 0.687500
vt 0.625000 0.750000
vt 0.625000 0.625000
vt 0.437500 0.812500
vt 0.500000 0.812500
vt 0.500000 0.875000
vt 0.437500 0.875000
vt 0.562500 0.812500
vt 0.562500 0.875000
vt 0.500000 0.937500
vt 0.437500 0.937500
vt 0.562500 0.937500
vt 0.375000 0.750000
vt 0.437500 0.750000
vt 0.375000 0.812500
vt 0.500000 0.750000
vt 0.562500 0.750000
vt 0.625000 0.812500
vt 0.625000 0.875000
vt 0.625000 0.937500
vt 0.625000 1.000000
vt 0.562500 1.000000
vt 0.500000 1.000000
vt 0.437500 1.000000
vt 0.375000 0.937500
vt 0.375000 1.000000
vt 0.375000 0.875000
vt 0.437500 0.062500
vt 0.500000 0.062500
vt 0.500000 0.125000
vt 0.437500 0.125000
vt 0.562500 0.062500
vt 0.562500 0.125000
vt 0.500000 0.187500
vt 0.437500 0.187500
vt 0.562500 0.187500
vt 0.375000 0.000000
vt 0.437500 0.000000
vt 0.375000 0.062500
vt 0.500000 0.000000
vt 0.562500 0.000000
vt 0.625000 0.000000
vt 0.625000 0.062500
vt 0.625000 0.125000
vt 0.625000 0.187500
vt 0.625000 0.250000
vt 0.562500 0.250000
vt 0.500000 0.250000
vt 0.437500 0.250000
vt 0.375000 0.187500
vt 0.375000 0.250000
vt 0.375000 0.125000
vt 0.187500 0.562500
vt 0.250000 0.562500
vt 0.250000 0.625000
vt 0.187500 0.625000
vt 0.312500 0.562500
vt 0.312500 0.625000
vt 0.250000 0.687500
vt 0.187500 0.687500
vt 0.312500 0.687500
vt 0.125000 0.500000
vt 0.187500 0.500000
vt 0.125000 0.562500
vt 0.250000 0.500000
vt 0.312500 0.500000
vt 0.375000 0.500000
vt 0.375000 0.562500
vt 0.375000 0.625000
vt 0.375000 0.687500
vt 0.312500 0.750000
vt 0.250000 0.750000
vt 0.187500 0.750000
vt 0.125000 0.687500
vt 0.125000 0.750000
vt 0.125000 0.625000
vt 0.437500 0.562500
vt 0.500000 0.562500
vt 0.500000 0.625000
vt 0.437500 0.625000
vt 0.562500 0.562500
vt 0.562500 0.625000
vt 0.500000 0.687500
vt 0.437500 0.687500
vt 0.562500 0.687500
vt 0.437500 0.500000
vt 0.500000 0.500000
vt 0.562500 0.500000
vt 0.437500 0.312500
vt 0.500000 0.312500
vt 0.500000 0.375000
vt 0.437500 0.375000
vt 0.562500 0.312500
vt 0.562500 0.375000
vt 0.500000 0.437500
vt 0.437500 0.437500
vt 0.562500 0.437500
vt 0.375000 0.312500
vt 0.625000 0.312500
vt 0.625000 0.375000
vt 0.625000 0.437500
vt 0.375000 0.437500
vt 0.375000 0.375000
vn 0.3384 0.9407 -0.0225
vn 0.0049 1.0000 -0.0021
vn 0.3488 0.8838 0.3118
vn 0.0153 0.9431 0.3323
vn 0.5817 0.7249 -0.3689
vn 0.3013 0.8700 -0.3903
vn -0.0284 0.9286 -0.3701
vn -0.3369 0.8881 -0.3126
vn -0.3651 0.9310 -0.0004
vn -0.3548 0.8747 0.3302
vn -0.3083 0.7313 0.6084
vn 0.0035 0.7536 0.6573
vn 0.3332 0.6950 0.6371
vn 0.6103 0.5681 0.5521
vn 0.6699 0.6926 0.2674
vn 0.6596 0.7489 -0.0632
vn 0.1655 -0.3571 0.9193
vn 0.2274 -0.0279 0.9734
vn -0.1680 -0.2979 0.9397
vn -0.1062 0.0314 0.9939
vn 0.3971 -0.6609 0.6367
vn 0.5074 -0.3942 0.7663
vn 0.5685 -0.0686 0.8198
vn 0.5674 0.2460 0.7859
vn 0.2854 0.3362 0.8975
vn -0.0443 0.3947 0.9177
vn -0.3512 0.4092 0.8422
vn -0.4562 0.1134 0.8826
vn -0.5173 -0.2121 0.8291
vn -0.5215 -0.4977 0.6930
vn -0.2343 -0.6169 0.7514
vn 0.0955 -0.6755 0.7312
vn -0.9798 -0.0236 0.1986
vn -0.9180 0.3057 0.2527
vn -0.9902 0.0333 -0.1358
vn -0.9284 0.3626 -0.0816
vn -0.8084 -0.4008 0.4312
vn -0.8369 -0.1042 0.5373
vn -0.7758 0.2214 0.5909
vn -0.6381 0.5061 0.5803
vn -0.7222 0.6238 0.2989
vn -0.7325 0.6801 -0.0318
vn -0.6667 0.6629 -0.3408
vn -0.8077 0.3963 -0.4365
vn -0.8688 0.0708 -0.4901
vn -0.8369 -0.2440 -0.4899
vn -0.9224 -0.3316 -0.1981
vn -0.9121 -0.3879 0.1325
vn -0.3488 -0.8838 -0.3118
vn -0.0153 -0.9431 -0.3323
vn -0.3384 -0.9407 0.0225
vn -0.0049 -1.0000 0.0021
vn -0.6103 -0.5681 -0.5521
vn -0.3332 -0.6950 -0.6371
vn -0.0035 -0.7536 -0.6573
vn 0.3083 -0.7313 -0.6084
vn 0.3548 -0.8747 -0.3302
vn 0.3651 -0.9310 0.0004
vn 0.3369 -0.8881 0.3126
vn 0.0284 -0.9286 0.3701
vn -0.3014 -0.8700 0.3903
vn -0.5817 -0.7249 0.3689
vn -0.6596 -0.7489 0.0632
vn -0.6699 -0.6926 -0.2674
vn 0.9180 -0.3057 -0.2527
vn 0.9798 0.0236 -0.1986
vn 0.9284 -0.3626 0.0816
vn 0.9902 -0.0333 0.1358
vn 0.6381 -0.5061 -0.5803
vn 0.7758 -0.2214 -0.5909
vn 0.8369 0.1042 -0.5373
vn 0.8084 0.4008 -0.4312
vn 0.9121 0.3879 -0.1325
vn 0.9224 0.3316 0.1981
vn 0.8369 0.2440 0.4899
vn 0.8688 -0.0708 0.4901
vn 0.8077 -0.3963 0.4365
vn 0.6667 -0.6629 0.3408
vn 0.7325 -0.6801 0.0318
vn 0.7222 -0.6238 -0.2989
vn -0.2274 0.0279 -0.9734
vn -0.1655 0.3571 -0.9193
vn 0.1062 -0.0314 -0.9939
vn 0.1680 0.2979 -0.9397
vn -0.5674 -0.2460 -0.7859
vn -0.5685 0.0686 -0.8198
vn -0.5074 0.3942 -0.7663
vn -0.3971 0.6609 -0.6367
vn -0.0955 0.6755 -0.7312
vn 0.2343 0.6169 -0.7514
vn 0.5215 0.4977 -0.6930
vn 0.5173 0.2121 -0.8291
vn 0.4562 -0.1134 -0.8826
vn 0.3512 -0.4092 -0.8422
vn 0.0443 -0.3947 -0.9177
vn -0.2854 -0.3362 -0.8975
usemtl Material.001
s 1
f 1/1/1 2/2/1 3/3/1 4/4/1
f 2/2/2 5/5/2 6/6/2 3/3/2
f 4/4/3 3/3/3 7/7/3 8/8/3
f 3/3/4 6/6/4 9/9/4 7/7/4
f 10/10/5 11/11/5 1/1/5 12/12/5
f 11/11/6 13/13/6 2/2/6 1/1/6
f 13/13/7 14/14/7 5/5/7 2/2/7
f 14/14/8 15/15/8 16/16/8 5/5/8
f 5/5/9 16/16/9 17/17/9 6/6/9
f 6/6/10 17/17/10 18/18/10 9/9/10
f 9/9/11 18/18/11 19/19/11 20/20/11
f 7/7/12 9/9/12 20/20/12 21/21/12
f 8/8/13 7/7/13 21/21/13 22/22/13
f 23/23/14 8/8/14 22/22/14 24/24/14
f 25/25/15 4/4/15 8/8/15 23/23/15
f 12/12/16 1/1/16 4/4/16 25/25/16
f 26/26/17 27/27/17 28/28/17 29/29/17
f 27/27/18 30/30/18 31/31/18 28/28/18
f 29/29/19 28/28/19 32/32/19 33/33/19
f 28/28/20 31/31/20 34/34/20 32/32/20
f 35/35/21 36/36/21 26/26/21 37/37/21
f 36/36/22 38/38/22 27/27/22 26/26/22
f 38/38/23 39/39/23 30/30/23 27/27/23
f 39/39/24 24/24/24 22/40/24 30/30/24
f 30/30/25 22/40/25 21/41/25 31/31/25
f 31/31/26 21/41/26 20/42/26 34/34/26
f 34/34/27 20/42/27 19/43/27 40/44/27
f 32/32/28 34/34/28 40/44/28 41/45/28
f 33/33/29 32/32/29 41/45/29 42/46/29
f 43/47/30 33/33/30 42/46/30 44/48/30
f 45/49/31 29/29/31 33/33/31 43/47/31
f 37/37/32 26/26/32 29/29/32 45/49/32
f 46/50/33 47/51/33 48/52/33 49/53/33
f 47/51/34 50/54/34 51/55/34 48/52/34
f 49/53/35 48/52/35 52/56/35 53/57/35
f 48/52/36 51/55/36 54/58/36 52/56/36
f 44/59/37 42/60/37 46/50/37 55/61/37
f 42/60/38 41/62/38 47/51/38 46/50/38
f 41/62/39 40/63/39 50/54/39 47/51/39
f 40/63/40 19/64/40 18/65/40 50/54/40
f 50/54/41 18/65/41 17/66/41 51/55/41
f 51/55/42 17/66/42 16/67/42 54/58/42
f 54/58/43 16/67/43 15/68/43 56/69/43
f 52/56/44 54/58/44 56/69/44 57/70/44
f 53/57/45 52/56/45 57/70/45 58/71/45
f 59/72/46 53/57/46 58/71/46 60/73/46
f 61/74/47 49/53/47 53/57/47 59/72/47
f 55/61/48 46/50/48 49/53/48 61/74/48
f 62/75/49 63/76/49 64/77/49 65/78/49
f 63/76/50 66/79/50 67/80/50 64/77/50
f 65/78/51 64/77/51 68/81/51 69/82/51
f 64/77/52 67/80/52 70/83/52 68/81/52
f 60/84/53 71/85/53 62/75/53 59/86/53
f 71/85/54 72/87/54 63/76/54 62/75/54
f 72/87/55 73/88/55 66/79/55 63/76/55
f 73/88/56 74/89/56 75/90/56 66/79/56
f 66/79/57 75/90/57 76/91/57 67/80/57
f 67/80/58 76/91/58 77/92/58 70/83/58
f 70/83/59 77/92/59 35/35/59 37/93/59
f 68/81/60 70/83/60 37/93/60 45/94/60
f 69/82/61 68/81/61 45/94/61 43/95/61
f 55/96/62 69/82/62 43/95/62 44/97/62
f 61/98/63 65/78/63 69/82/63 55/96/63
f 59/86/64 62/75/64 65/78/64 61/98/64
f 78/99/65 79/100/65 80/101/65 81/102/65
f 79/100/66 82/103/66 83/104/66 80/101/66
f 81/102/67 80/101/67 84/105/67 85/106/67
f 80/101/68 83/104/68 86/107/68 84/105/68
f 74/89/69 87/108/69 78/99/69 75/90/69
f 87/108/70 88/109/70 79/100/70 78/99/70
f 88/109/71 89/110/71 82/103/71 79/100/71
f 89/110/72 10/10/72 12/12/72 82/103/72
f 82/103/73 12/12/73 25/25/73 83/104/73
f 83/104/74 25/25/74 23/23/74 86/107/74
f 86/107/75 23/23/75 24/24/75 39/39/75
f 84/105/76 86/107/76 39/39/76 38/38/76
f 85/106/77 84/105/77 38/38/77 36/36/77
f 77/92/78 85/106/78 36/36/78 35/35/78
f 76/91/79 81/102/79 85/106/79 77/92/79
f 75/90/80 78/99/80 81/102/80 76/91/80
f 90/111/81 91/112/81 92/113/81 93/114/81
f 91/112/82 94/115/82 95/116/82 92/113/82
f 93/114/83 92/113/83 96/117/83 97/118/83
f 92/113/84 95/116/84 98/119/84 96/117/84
f 60/73/85 58/71/85 90/111/85 71/120/85
f 58/71/86 57/70/86 91/112/86 90/111/86
f 57/70/87 56/69/87 94/115/87 91/112/87
f 56/69/88 15/68/88 14/121/88 94/115/88
f 94/115/89 14/121/89 13/122/89 95/116/89
f 95/116/90 13/122/90 11/123/90 98/119/90
f 98/119/91 11/123/91 10/10/91 89/110/91
f 96/117/92 98/119/92 89/110/92 88/109/92
f 97/118/93 96/117/93 88/109/93 87/108/93
f 73/124/94 97/118/94 87/108/94 74/89/94
f 72/125/95 93/114/95 97/118/95 73/124/95
f 71/120/96 90/111/96 93/114/96 72/125/96
